<?xml version="1.0" encoding="UTF-8"?>
<svg width="654px" height="366px" viewBox="0 0 654 366" version="1.1" xmlns="http://www.w3.org/2000/svg" xmlns:xlink="http://www.w3.org/1999/xlink">
    <title>overview</title>
    <g id="Page-1" stroke="none" stroke-width="1" fill="none" fill-rule="evenodd">
        <g id="overview" transform="translate(-0.000000, 0.000000)">
            <g id="Group-9">
                <g id="Group-2" transform="translate(0.000000, 0.000000)">
                    <rect id="Rectangle" stroke="#5754F5" stroke-width="0.642140468" fill="#EAEAF3" x="0.321070234" y="0.321070234" width="191.35786" height="51.3578595" rx="5.13712375"></rect>
                    <text id="What’s-the-weather-i" font-family="HelveticaNeue, Helvetica Neue" font-size="13.189566" font-weight="normal" fill="#060606">
                        <tspan x="11.7085459" y="32">What’s the weather in Paris?</tspan>
                    </text>
                </g>
                <g id="Group-5" transform="translate(51.000000, 322.000000)">
                    <path d="M10.700161,23.0875877 C10.700161,22.5836763 11.1254724,22.1751754 11.6501207,22.1751754 L17.3498793,22.1751754 C17.8745276,22.1751754 18.299839,22.5836763 18.299839,23.0875877 C18.299839,23.5914991 17.8745276,24 17.3498793,24 L11.6501207,24 C11.1254724,24 10.700161,23.5914991 10.700161,23.0875877 M5.00040244,14.989016 C5.00040244,12.6130943 7.34680304,10.7973938 9.8071988,11.0181976 C12.9289598,11.297826 16.0710402,11.297826 19.1928012,11.0181976 C21.653197,10.7973938 23.9995976,12.6130943 23.9995976,14.989016 L23.9995976,17.1003381 C24.0180258,17.9350291 23.4016397,18.6586131 22.5461591,18.8065491 C20.9407271,19.0747983 18.1003475,19.4379384 14.5,19.4379384 C10.8996525,19.4379384 8.05927285,19.0729735 6.45384086,18.8065491 C5.59836028,18.6586131 4.9819742,17.9350291 5.00040244,17.1003381 L5.00040244,14.989016 Z M13.6298369,13.479886 C13.4796427,13.4553478 13.3263089,13.501498 13.2175543,13.6039741 L11.4696284,15.2463162 C10.2807719,15.1778467 9.09501735,15.0664537 7.91487897,14.9123733 C7.66073171,14.888118 7.43211173,15.0612345 7.39735308,15.3042562 C7.36259442,15.547278 7.534142,15.7731941 7.78568444,15.8156615 C8.83064017,15.9543482 10.1263853,16.0875604 11.6235219,16.1678527 C11.756858,16.1750714 11.8871981,16.128043 11.9826066,16.0382901 L13.415146,14.6952192 L15.0243778,17.8156693 C15.0931688,17.948515 15.2249241,18.0409321 15.3776116,18.0634382 C15.5302991,18.0859443 15.6848445,18.0357277 15.7919453,17.9288084 L17.5626703,16.1587286 C18.7840314,16.0895873 20.002155,15.9751462 21.2143156,15.8156615 C21.465858,15.7731941 21.6374056,15.547278 21.6026469,15.3042562 C21.5678883,15.0612345 21.3392683,14.888118 21.085121,14.9123733 C20.0629643,15.0474104 18.7919182,15.1769729 17.3232804,15.2572652 C17.2037076,15.263653 17.0910602,15.313188 17.0078938,15.3959519 L15.5753544,16.8284392 L13.9756222,13.7262373 C13.9079503,13.5957816 13.7794531,13.5042351 13.6298369,13.479886" id="Shape" fill="#000000" fill-rule="nonzero"></path>
                    <path d="M15.9375,3.48324152 C16.67244,3.06081027 17.030754,2.19960995 16.8111109,1.38353544 C16.5914679,0.567460929 15.8486356,0 15,0 C14.1513644,0 13.4085321,0.567460929 13.1888891,1.38353544 C12.969246,2.19960995 13.32756,3.06081027 14.0625,3.48324152 L14.0625,5.60003794 L10.3125,5.60003794 C5.65259742,5.60003794 1.875,9.36083967 1.875,14.0000237 L1.875,14.9333555 C0.839466094,14.9333555 0,15.7690892 0,16.800019 L0,20.533346 C0,21.5642758 0.839466094,22.4000095 1.875,22.4000095 L1.875,24.266673 C1.875,26.3285326 3.55393219,28 5.625,28 L24.375,28 C26.4460678,28 28.125,26.3285326 28.125,24.266673 L28.125,22.4000095 C29.1605339,22.4000095 30,21.5642758 30,20.533346 L30,16.800019 C30,15.7690892 29.1605339,14.9333555 28.125,14.9333555 L28.125,14.0000237 C28.125,9.36083967 24.3474026,5.60003794 19.6875,5.60003794 L15.9375,5.60003794 L15.9375,3.48324152 Z M26.25,14.0000237 L26.25,24.266673 C26.25,25.2976028 25.4105339,26.1333365 24.375,26.1333365 L5.625,26.1333365 C4.58946609,26.1333365 3.75,25.2976028 3.75,24.266673 L3.75,14.0000237 C3.75,10.3917695 6.68813133,7.46670144 10.3125,7.46670144 L19.6875,7.46670144 C23.3118687,7.46670144 26.25,10.3917695 26.25,14.0000237" id="Shape" fill="#000000" fill-rule="nonzero"></path>
                    <text id="Agent" font-family="HelveticaNeue, Helvetica Neue" font-size="20.5400012" font-weight="normal" fill="#060606">
                        <tspan x="35.9898985" y="23">Agent</tspan>
                    </text>
                </g>
                <g id="Group-6" transform="translate(17.000000, 120.000000)">
                    <rect id="Rectangle-Copy" stroke="#5754F5" fill-opacity="0" fill="#5451F5" x="0.5" y="0.5" width="157.483254" height="182" rx="11"></rect>
                    <rect id="Rectangle-Copy" fill-opacity="0.134779283" fill="#000000" x="6.25837321" y="5" width="75" height="81" rx="8"></rect>
                    <rect id="Rectangle-Copy-8" fill="#FF7171" x="83.2583732" y="5" width="70" height="81" rx="7"></rect>
                    <rect id="Rectangle-Copy-9" fill-opacity="0.134779283" fill="#000000" x="83.2583732" y="89" width="70" height="32" rx="7"></rect>
                    <rect id="Rectangle-Copy-10" fill="#DDDDDD" x="83.2583732" y="124" width="70" height="53" rx="3"></rect>
                    <rect id="Rectangle-Copy-11" fill-opacity="0.134779283" fill="#000000" x="6.25837321" y="152" width="73" height="25" rx="5"></rect>
                    <rect id="Rectangle-Copy-12" fill-opacity="0.134779283" fill="#000000" x="6.25837321" y="124" width="74" height="25" rx="5"></rect>
                    <rect id="Rectangle-Copy-13" fill-opacity="0.134779283" fill="#000000" x="6.25837321" y="89" width="74" height="33" rx="7"></rect>
                </g>
                <g id="Group-3" transform="translate(495.258373, 151.000000)">
                    <rect id="Rectangle-Copy-7" fill="#E3E5FF" x="0" y="0" width="158.483254" height="125" rx="11"></rect>
                    <rect id="Rectangle" fill="#FF7171" x="45.7416268" y="77" width="95" height="16" rx="3"></rect>
                    <g id="Group-7" transform="translate(45.741627, 55.000000)">
                        <rect id="Rectangle-Copy-14" fill="#56DD55" x="0" y="0" width="95" height="16" rx="3"></rect>
                        <text id="assert-....-copy" font-family="PTMono-Regular, PT Mono" font-size="11.540001" font-weight="normal" fill="#FFFFFF">
                            <tspan x="5.9179967" y="12">assert ....</tspan>
                        </text>
                    </g>
                    <g id="Group-8" transform="translate(45.741627, 35.000000)">
                        <rect id="Rectangle-Copy-15" fill="#56DD55" x="0" y="0" width="95" height="16" rx="3"></rect>
                        <text id="assert-...." font-family="PTMono-Regular, PT Mono" font-size="11.540001" font-weight="normal" fill="#FFFFFF">
                            <tspan x="5.9179967" y="12">assert ....</tspan>
                        </text>
                    </g>
                    <text id="def-test_weather" font-family="PTMono-Bold, PT Mono" font-size="11.540001" font-weight="bold" fill="#060606">
                        <tspan x="17.349622" y="26">def</tspan>
                        <tspan x="38.1216238" y="26" font-family="PTMono-Regular, PT Mono" font-weight="normal"> test_weather</tspan>
                    </text>
                    <text id="assert-....-copy-2" font-family="PTMono-Regular, PT Mono" font-size="11.540001" font-weight="normal" fill="#FFFFFF">
                        <tspan x="51.6596235" y="88">assert ....</tspan>
                    </text>
                </g>
                <rect id="Rectangle-Copy-2" stroke="#B5A6FF" stroke-width="0.685185185" fill="#FFFFFF" x="273.342593" y="140.342593" width="123.314815" height="26.7222222" rx="7.53703704"></rect>
                <rect id="Rectangle-Copy-3" stroke="#FF7171" stroke-width="0.685185185" fill="#FF7171" x="273.342593" y="170.490741" width="123.314815" height="26.7222222" rx="7.53703704"></rect>
                <rect id="Rectangle-Copy-4" stroke="#B5A6FF" stroke-width="0.685185185" fill="#FFFFFF" x="273.342593" y="200.638889" width="123.314815" height="26.7222222" rx="7.53703704"></rect>
                <rect id="Rectangle-Copy-5" stroke="#B5A6FF" stroke-width="0.685185185" fill="#FFFFFF" x="273.342593" y="230.787037" width="123.314815" height="26.7222222" rx="7.53703704"></rect>
                <rect id="Rectangle-Copy-6" stroke="#B5A6FF" stroke-width="0.685185185" fill="#FFFFFF" x="273.342593" y="260.935185" width="123.314815" height="26.7222222" rx="7.53703704"></rect>
                <rect id="Rectangle-Copy-16" stroke="#B5A6FF" stroke-width="0.685185185" fill="#FFFFFF" opacity="0.283319382" x="285.575025" y="291.638889" width="98.8499499" height="21.3148148" rx="7.53703704"></rect>
                <rect id="Rectangle-Copy-17" stroke="#B5A6FF" stroke-width="0.685185185" fill="#FFFFFF" opacity="0.283319382" x="285.575025" y="114.638889" width="98.8499499" height="21.3148148" rx="7.53703704"></rect>
                <path id="Path" d="M97.5,63.9350919 L97.5,88.857 L105.5,88.8570582 L96,107.857058 L86.5,88.8570582 L94.5,88.857 L94.5,63.9350919 L97.5,63.9350919 Z" fill="#5754F5" fill-rule="nonzero"></path>
                <path id="Path-Copy" d="M227,235 L246,244.5 L227,254 L227,246 L200.5,246 L200.5,243 L227,243 L227,235 Z" fill="#5754F5" fill-rule="nonzero"></path>
                <path id="Path-Copy-2" d="M450,235 L469,244.5 L450,254 L450,246 L423.5,246 L423.5,243 L450,243 L450,235 Z" fill="#5754F5" fill-rule="nonzero"></path>
                <text id="Execution-Trace-Hund" font-family="HelveticaNeue, Helvetica Neue" font-size="20.5400012" font-weight="normal">
                    <tspan x="260.830056" y="345" fill="#060606">Execution Trace</tspan>
                    <tspan x="273.673" y="369.422529" font-size="14" fill="#949494">Hundreds of events</tspan>
                </text>
                <text id="Test-Assertions" font-family="HelveticaNeue, Helvetica Neue" font-size="20.5400012" font-weight="normal" fill="#060606">
                    <tspan x="504.249966" y="345">Test Assertions</tspan>
                </text>
                <path id="Path-2" d="M532.063775,234.340725 C534.404686,234.439996 536.776806,234.494124 539.181377,234.502415 L540.990909,234.500028 L541.009091,237.499972 C538.549589,237.514879 536.122749,237.483027 533.727345,237.405102 L531.936668,237.338031 L532.063775,234.340725 Z M514.31162,232.646836 C516.727671,233.012548 519.17805,233.325283 521.664987,233.584138 L523.161554,233.732978 L522.878293,236.719575 C520.330501,236.477932 517.819787,236.181157 515.343959,235.830151 L513.862631,235.613047 L514.31162,232.646836 Z M496.873828,228.944301 C499.240362,229.598167 501.637963,230.196161 504.070423,230.737505 L505.534112,231.055507 L504.911959,233.990285 C502.415775,233.461112 499.955625,232.873905 497.527753,232.229475 L496.074873,231.835957 L496.873828,228.944301 Z M480.035114,223.164282 C482.323241,224.107391 484.631196,224.993086 486.966191,225.821665 L488.370491,226.311961 L487.396038,229.149291 C485.002032,228.327093 482.637372,227.446781 480.294824,226.508117 L478.891891,225.937915 L480.035114,223.164282 Z M463.930953,215.448421 C466.052722,216.60371 468.164382,217.701319 470.281842,218.74641 L471.871273,219.520461 L470.572144,222.22458 C468.413287,221.18741 466.265383,220.098619 464.112343,218.953063 L462.496349,218.083172 L463.930953,215.448421 Z M448.578476,206.281893 C450.969593,207.812831 453.192574,209.201624 455.36973,210.518693 L456.184255,211.009369 L454.641054,213.58202 C452.449488,212.267412 450.229472,210.890697 447.857641,209.380941 L446.960847,208.808408 L448.578476,206.281893 Z M433.507656,196.457135 C433.910237,196.715343 434.281177,196.953882 434.651553,197.192988 L434.969604,197.398547 C436.304082,198.262014 437.745206,199.206922 440.720734,201.163025 L441.057735,201.384578 L439.409659,203.891338 C436.334969,201.869876 434.835287,200.885953 433.500632,200.021361 L433.182761,199.81568 L432.708362,199.509579 C432.531689,199.395767 432.352937,199.280812 432.168764,199.162537 L431.888019,198.982362 L433.507656,196.457135 Z M417.69051,187.438147 C420.016152,188.520267 422.419533,189.778924 424.993775,191.250961 L425.771267,191.699011 L424.264877,194.293387 C421.722704,192.817309 419.364625,191.557237 417.101189,190.476873 L416.424908,190.158119 L417.69051,187.438147 Z M399.906305,182.457423 C402.693765,182.659716 405.476681,183.151137 408.298386,183.925164 L409.068937,184.143264 L408.228752,187.02321 C405.602893,186.257152 403.027436,185.752741 400.459393,185.513401 L399.689159,185.449554 L399.906305,182.457423 Z M390.805531,182.351852 L390.805531,185.351852 L381.804899,185.351852 L381.804899,182.351852 L390.805531,182.351852 Z M372.810819,182.351852 L372.810819,185.351852 L363.809745,185.351852 L363.809745,182.351852 L372.810819,182.351852 Z M354.810298,182.351852 L354.810298,185.351852 L345.811066,185.351852 L345.811066,182.351852 L354.810298,182.351852 Z M336.806806,182.351852 L336.806806,185.351852 L327.807733,185.351852 L327.807733,182.351852 L336.806806,182.351852 Z M318.810882,182.351852 L318.810882,185.351852 L309.8115,185.351852 L309.8115,182.351852 L318.810882,182.351852 Z M300.810829,182.351852 L300.810829,185.351852 L291.810905,185.351852 L291.810905,182.351852 L300.810829,182.351852 Z M282.812593,182.351852 L282.812593,185.351852 L273.812521,185.351852 L273.812521,182.351852 L282.812593,182.351852 Z M255.919003,181.83821 C258.39179,182.000501 260.976142,182.124952 263.682516,182.210698 L264.849891,182.245074 L264.768209,185.243962 C261.993789,185.168394 259.342463,185.053443 256.803709,184.899923 L255.722533,184.83177 L255.919003,181.83821 Z M238.222221,179.733439 C240.653145,180.17907 243.191095,180.567915 245.871019,180.900707 L247.028352,181.039903 L246.681445,184.019778 C243.903879,183.696424 241.273064,183.315478 238.754094,182.876134 L237.681281,182.684266 L238.222221,179.733439 Z M221.025705,175.22408 C223.826733,176.158654 226.284779,176.915247 228.795352,177.596796 L229.550495,177.799113 L228.783698,180.699462 C226.197108,180.015617 223.709901,179.266987 220.921994,178.35008 L220.0762,178.069856 L221.025705,175.22408 Z M188.149816,158.711812 L187.803393,166.793221 C189.90074,167.01714 191.909931,167.283056 193.850191,167.591209 L194.870892,167.758269 L194.372225,170.716534 C192.235559,170.356362 190.01273,170.049841 187.674828,169.796687 L187.332698,177.694234 L168.758836,167.385904 L188.149816,158.711812 Z M203.798248,169.672145 C206.382005,170.348257 208.871753,171.10129 211.77529,172.06466 L212.510089,172.309961 L211.555092,175.153899 C208.634062,174.173015 206.171381,173.412759 203.666244,172.740681 L203.038786,172.574422 L203.798248,169.672145 Z" fill="#FF7171" fill-rule="nonzero"></path>
                <text id="Assertion-Localizati" font-family="HelveticaNeue, Helvetica Neue" font-size="20.5400012" font-weight="normal" fill="#FF7171">
                    <tspan x="390.020048" y="72">Assertion</tspan>
                    <tspan x="378.240357" y="96.4225289">Localization</tspan>
                </text>
                <line x1="433" y1="111.793283" x2="421.236023" y2="191.05664" id="Path-3" stroke="#FF7171"></line>
            </g>
            <text id="..." opacity="0.422874814" font-family="NeueMontreal-Regular, Neue Montreal" font-size="20.5400012" font-weight="normal" fill="#060606">
                <tspan x="325.39962" y="126">...</tspan>
            </text>
            <text id="...-copy" opacity="0.422874814" font-family="NeueMontreal-Regular, Neue Montreal" font-size="20.5400012" font-weight="normal" fill="#060606">
                <tspan x="325.39962" y="303">...</tspan>
            </text>
        </g>
    </g>
</svg>